<svg width="74" height="74" xmlns="http://www.w3.org/2000/svg" xmlns:xlink="http://www.w3.org/1999/xlink" xml:space="preserve" overflow="hidden"><g transform="translate(-175 -349)"><path d="M236.667 399.875C236.626 397.944 235.721 396.133 234.2 394.942 230.808 392.167 226.492 390.317 222.175 389.083 218.877 388.074 215.449 387.554 212 387.542 208.555 387.601 205.133 388.12 201.825 389.083 197.514 390.341 193.448 392.322 189.8 394.942 188.279 396.133 187.374 397.944 187.333 399.875L187.333 412.208 236.667 412.208Z" fill="#767171"/><path d="M209.688 368.849C211.692 367.67 216.625 363.862 216.625 363.862L216.625 363.862C217.403 363.929 218.144 364.227 218.753 364.717 220.233 365.757 221.486 367.086 222.437 368.625 223.293 369.905 224.025 370.938 224.249 371.246L224.249 371.246 224.333 371.354 224.333 371.354C224.719 370.583 224.703 368.433 224.434 366.475 224.056 363.777 223.747 362.975 222.021 361.526 220.921 360.529 219.452 360.039 217.974 360.177 215.968 358.621 213.552 357.683 211.021 357.479 207.167 357.34 202.958 359.352 201.17 361.711 198.464 365.257 198.765 367.569 198.765 368.394 198.765 369.219 197.817 370.653 198.48 370.653 198.911 370.653 199.335 370.653 199.767 370.653L199.767 370.653C202.21 370.583 207.198 370.314 209.688 368.849Z" fill="#767171"/><path d="M223.115 372.256C223.077 372.202 222.229 371.023 221.196 369.489 220.348 368.097 219.222 366.896 217.889 365.958 217.63 365.769 217.347 365.614 217.049 365.496 215.677 366.536 212.146 369.188 210.466 370.167 207.799 371.709 202.935 372.117 199.674 372.187 199.759 378.998 205.349 384.451 212.16 384.366 218.243 384.291 223.363 379.79 224.218 373.767Z" fill="#767171"/></g></svg>