<svg width="48" height="48" xmlns="http://www.w3.org/2000/svg" xmlns:xlink="http://www.w3.org/1999/xlink" xml:space="preserve" overflow="hidden"><g transform="translate(-188 -190)"><path d="M219.465 215C217.775 213.56 215.58 212.885 213.5 212.235L213.5 200.145C215.52 200.337 217.407 201.234 218.83 202.68L221.23 200.38C219.176 198.291 216.424 197.032 213.5 196.845L213.5 192.5 210.5 192.5 210.5 197.035C209.473 197.235 208.482 197.589 207.56 198.085 203.77 200.15 201.835 205 203.39 209.085 204.595 212.235 207.5 213.64 210.5 214.695L210.5 227.785C208.175 227.5 206.245 226.165 204.645 224.5L202.245 226.795C203.388 228.092 204.75 229.177 206.27 230 207.598 230.632 209.033 231.01 210.5 231.115L210.5 235.5 213.5 235.5 213.5 231C216.94 230.425 220.1 228.31 221.46 225 222.82 221.69 222.325 217.445 219.465 215ZM208 209.865C205.25 207.545 205.92 203.055 208.835 201.195 209.352 200.864 209.912 200.606 210.5 200.43L210.5 211.275C209.595 210.946 208.75 210.469 208 209.865ZM217.045 225.775C216.069 226.729 214.838 227.38 213.5 227.65L213.5 215.705C215.5 216.39 217.795 217.26 218.61 219.39 219.425 221.52 218.605 224.185 217.045 225.775Z" stroke="#4472C4" stroke-width="1.33334" fill="#7F7F7F"/></g></svg>