<svg width="102" height="69" xmlns="http://www.w3.org/2000/svg" xmlns:xlink="http://www.w3.org/1999/xlink" xml:space="preserve" overflow="hidden"><g transform="translate(-161 -262)"><path d="M22.2812 22.2812 14.375 22.2812 14.375 17.25 22.2812 17.25 22.2812 22.2812ZM33.0625 17.25 33.0625 22.2812 25.1562 22.2812 25.1562 17.25 33.0625 17.25ZM43.8438 17.25 43.8438 22.2812 35.9375 22.2812 35.9375 17.25 43.8438 17.25ZM54.625 17.25 54.625 22.2812 46.7188 22.2812 46.7188 17.25 54.625 17.25ZM54.625 30.1875 46.7188 30.1875 46.7188 25.1562 54.625 25.1562 54.625 30.1875ZM54.625 36.2969 46.7188 37.0156 46.7188 33.0625 54.625 33.0625 54.625 36.2969ZM22.2812 33.0625 22.2812 39.1719 14.375 39.8906 14.375 33.0625 22.2812 33.0625ZM22.2812 30.1875 14.375 30.1875 14.375 25.1562 22.2812 25.1562 22.2812 30.1875ZM33.0625 30.1875 25.1562 30.1875 25.1562 25.1562 33.0625 25.1562 33.0625 30.1875ZM35.9375 30.1875 35.9375 25.1562 43.8438 25.1562 43.8438 30.1875 35.9375 30.1875ZM33.0625 38.2375 25.1562 38.9562 25.1562 33.0625 33.0625 33.0625 33.0625 38.2375ZM35.9375 33.0625 43.8438 33.0625 43.8438 37.2313 35.9375 37.95 35.9375 33.0625ZM58.9375 40.25 58.9375 12.9375 14.375 12.9375 14.375 12.2188C14.375 8.625 11.5 5.75 7.90625 5.75 6.68438 5.75 5.75 6.68438 5.75 7.90625 5.75 9.12813 6.68438 10.0625 7.90625 10.0625 9.12813 10.0625 10.0625 10.9969 10.0625 12.2188L10.0625 48.1562C10.0625 51.75 12.9375 54.625 16.5312 54.625L18.6875 54.625 50.3125 54.625 56.7812 54.625C58.0031 54.625 58.9375 53.6906 58.9375 52.4688 58.9375 51.2469 58.0031 50.3125 56.7812 50.3125L16.5312 50.3125C15.3094 50.3125 14.375 49.3781 14.375 48.1562L14.375 44.2031 58.9375 40.25Z" fill="#7F7F7F" transform="matrix(1.47826 0 0 1 161 262)"/><path d="M23 58.9375C23 61.3192 21.0692 63.25 18.6875 63.25 16.3058 63.25 14.375 61.3192 14.375 58.9375 14.375 56.5558 16.3058 54.625 18.6875 54.625 21.0692 54.625 23 56.5558 23 58.9375Z" fill="#7F7F7F" transform="matrix(1.47826 0 0 1 161 262)"/><path d="M54.625 58.9375C54.625 61.3192 52.6942 63.25 50.3125 63.25 47.9308 63.25 46 61.3192 46 58.9375 46 56.5558 47.9308 54.625 50.3125 54.625 52.6942 54.625 54.625 56.5558 54.625 58.9375Z" fill="#7F7F7F" transform="matrix(1.47826 0 0 1 161 262)"/></g></svg>